<?xml version="1.0" encoding="UTF-8"?>
<svg width="78px" height="84px" viewBox="0 0 78 84" version="1.1" xmlns="http://www.w3.org/2000/svg" xmlns:xlink="http://www.w3.org/1999/xlink">
    <!-- Generator: Sketch 50.2 (55047) - http://www.bohemiancoding.com/sketch -->
    <title>Group</title>
    <desc>Created with Sketch.</desc>
    <defs></defs>
    <g id="Page-1" stroke="none" stroke-width="1" fill="none" fill-rule="evenodd">
        <g id="Group" fill="#FFFFFF">
            <path d="M40.712,0 C52.6800598,0 61.863968,2.92797072 68.264,8.784 C74.664032,14.6400293 77.864,22.7839478 77.864,33.216 C77.864,43.6480522 74.7440312,51.9039696 68.504,57.984 C62.2639688,64.0640304 52.744064,67.104 39.944,67.104 L17,67.104 L17,0 L40.712,0 Z M41.48,53.856 C48.3280342,53.856 53.5919816,52.1280173 57.272,48.672 C60.9520184,45.2159827 62.792,40.192033 62.792,33.6 C62.792,27.007967 60.9520184,21.9360178 57.272,18.384 C53.5919816,14.8319822 47.9440381,13.056 40.328,13.056 L31.976,13.056 L31.976,53.856 L41.48,53.856 Z" id="D"></path>
            <polygon id="L" points="0 83.104 0 16 14.976 16 14.976 69.76 43.584 69.76 43.584 83.104"></polygon>
        </g>
    </g>
</svg>