<?xml version="1.0" encoding="UTF-8"?>
<svg width="54px" height="68px" viewBox="0 0 54 68" version="1.1" xmlns="http://www.w3.org/2000/svg" xmlns:xlink="http://www.w3.org/1999/xlink">
    <!-- Generator: Sketch 50.2 (55047) - http://www.bohemiancoding.com/sketch -->
    <title>Group 2</title>
    <desc>Created with Sketch.</desc>
    <defs></defs>
    <g id="Page-1" stroke="none" stroke-width="1" fill="none" fill-rule="evenodd">
        <g id="Group-2" transform="translate(27.000000, 34.000000) rotate(90.000000) translate(-27.000000, -34.000000) translate(-7.000000, 7.000000)" fill="#2F3139">
            <path d="M11.7589212,48.338923 L11.7589212,-11.7589212 L11.7589212,-11.7589212 C20.0291789,-11.7589212 26.7335474,-5.05455269 26.7335474,3.21570498 L26.7335474,27.6934593 C26.7335474,35.5926157 33.1370788,41.9961471 41.0362352,41.9961471 L41.9961471,41.9961471 C49.3651588,41.9961471 55.338923,47.9699114 55.338923,55.338923 L18.7589212,55.338923 C14.892928,55.338923 11.7589212,52.2049163 11.7589212,48.338923 Z" id="L" transform="translate(33.548922, 21.790001) rotate(90.000000) translate(-33.548922, -21.790001) "></path>
            <path d="M23.6025129,55.691024 L23.6025129,13.0989769 L23.6025129,13.0989769 C29.7150641,13.0989769 34.6702659,18.0541787 34.6702659,24.1667299 L34.6702659,52.8293723 L45.9508603,52.8293723 C51.3973001,52.8293723 55.812512,57.2445841 55.812512,62.691024 L30.6025129,62.691024 C26.7365196,62.691024 23.6025129,59.5570172 23.6025129,55.691024 Z" id="L" transform="translate(39.707512, 37.895000) rotate(-90.000000) translate(-39.707512, -37.895000) "></path>
        </g>
    </g>
</svg>