<?xml version="1.0" encoding="UTF-8"?>
<svg width="58px" height="68px" viewBox="0 0 58 68" version="1.1" xmlns="http://www.w3.org/2000/svg" xmlns:xlink="http://www.w3.org/1999/xlink">
    <!-- Generator: Sketch 50.2 (55047) - http://www.bohemiancoding.com/sketch -->
    <title>Group 2</title>
    <desc>Created with Sketch.</desc>
    <defs></defs>
    <g id="Page-1" stroke="none" stroke-width="1" fill="none" fill-rule="evenodd">
        <g id="Group-2" transform="translate(29.000000, 34.000000) rotate(90.000000) translate(-29.000000, -34.000000) translate(-5.000000, 5.000000)" fill="#FFFFFF">
            <path d="M11.7589212,48.338923 L11.7589212,-11.7589212 L11.7589212,-11.7589212 C20.0291789,-11.7589212 26.7335474,-5.05455269 26.7335474,3.21570498 L26.7335474,27.6934593 C26.7335474,35.5926157 33.1370788,41.9961471 41.0362352,41.9961471 L41.9961471,41.9961471 C49.3651588,41.9961471 55.338923,47.9699114 55.338923,55.338923 L18.7589212,55.338923 C14.892928,55.338923 11.7589212,52.2049163 11.7589212,48.338923 Z" id="L" transform="translate(33.548922, 21.790001) rotate(90.000000) translate(-33.548922, -21.790001) "></path>
            <path d="M21.9175115,59.9703336 L21.9175115,12.18967 L21.9175115,12.18967 C28.6695944,12.18967 34.143239,17.6633147 34.143239,24.4153975 L34.143239,56.076897 L46.6040767,56.076897 C52.6203556,56.076897 57.4975133,60.9540547 57.4975133,66.9703336 L28.9175115,66.9703336 C25.0515183,66.9703336 21.9175115,63.8363269 21.9175115,59.9703336 Z" id="L" transform="translate(39.707512, 39.580002) rotate(-90.000000) translate(-39.707512, -39.580002) "></path>
        </g>
    </g>
</svg>